<?xml version="1.0" encoding="UTF-8" standalone="no"?>
<!-- Generator: Adobe Illustrator 18.1.1, SVG Export Plug-In . SVG Version: 6.00 Build 0)  -->

<svg
   xmlns:dc="http://purl.org/dc/elements/1.1/"
   xmlns:cc="http://creativecommons.org/ns#"
   xmlns:rdf="http://www.w3.org/1999/02/22-rdf-syntax-ns#"
   xmlns:svg="http://www.w3.org/2000/svg"
   xmlns="http://www.w3.org/2000/svg"
   xmlns:sodipodi="http://sodipodi.sourceforge.net/DTD/sodipodi-0.dtd"
   xmlns:inkscape="http://www.inkscape.org/namespaces/inkscape"
   version="1.1"
   id="Layer_1"
   x="0px"
   y="0px"
   viewBox="0 0 2800 1192"
   enable-background="new 0 0 2800 1192"
   xml:space="preserve"
   sodipodi:docname="campsite.svg"
   inkscape:version="0.92.2 (5c3e80d, 2017-08-06)"><metadata
     id="metadata243"><rdf:RDF><cc:Work
         rdf:about=""><dc:format>image/svg+xml</dc:format><dc:type
           rdf:resource="http://purl.org/dc/dcmitype/StillImage" /><dc:title></dc:title></cc:Work></rdf:RDF></metadata><defs
     id="defs241" /><sodipodi:namedview
     pagecolor="#ffffff"
     bordercolor="#666666"
     borderopacity="1"
     objecttolerance="10"
     gridtolerance="10"
     guidetolerance="10"
     inkscape:pageopacity="0"
     inkscape:pageshadow="2"
     inkscape:window-width="2560"
     inkscape:window-height="1376"
     id="namedview239"
     showgrid="false"
     inkscape:zoom="0.44571429"
     inkscape:cx="2214.9964"
     inkscape:cy="199.18357"
     inkscape:window-x="0"
     inkscape:window-y="27"
     inkscape:window-maximized="1"
     inkscape:current-layer="Layer_1" /><polyline
     fill="#728A60"
     points="2800,1191 2800,848.491 2198.717,955.839 1800.029,879.706 1455.444,936.039 991.035,805   751.012,860.493 600.233,843.304 0,914.933 0,1191 "
     id="polyline6" /><rect
     y="1117"
     fill="#647A55"
     width="2800"
     height="25"
     id="rect8" /><rect
     y="1142"
     fill="#566949"
     width="2800"
     height="25"
     id="rect10" /><rect
     y="1167"
     fill="#444D3C"
     width="2800"
     height="25"
     id="rect12" /><g
     id="g58"><polygon
       fill="#FFFFFF"
       points="1323,886.99 1275,950.201 1323,953.701 1371,950.201  "
       id="polygon50" /><polygon
       fill="#EDEDED"
       points="1323,886.99 1311.159,955.602 1319.018,953.41  "
       id="polygon52" /><polygon
       fill="#4D4D4D"
       points="1323,887.201 1323,953.701 1319.017,953.41  "
       id="polygon54" /><line
       fill="none"
       stroke="#4D4D4D"
       stroke-width="2"
       stroke-linecap="round"
       stroke-miterlimit="10"
       x1="1323"
       y1="887"
       x2="1323"
       y2="880"
       id="line56" /></g><g
     id="g68"><polygon
       fill="#FFFFFF"
       points="1108,936.99 1060,1000.201 1108,1003.701 1156,1000.201  "
       id="polygon60" /><polygon
       fill="#EDEDED"
       points="1108,936.99 1096.159,1005.602 1104.018,1003.41  "
       id="polygon62" /><polygon
       fill="#4D4D4D"
       points="1108,937.201 1108,1003.701 1104.017,1003.41  "
       id="polygon64" /><line
       fill="none"
       stroke="#4D4D4D"
       stroke-width="2"
       stroke-linecap="round"
       stroke-miterlimit="10"
       x1="1108"
       y1="937"
       x2="1108"
       y2="930"
       id="line66" /></g><g
     id="g86"><g
       opacity="0.2"
       id="g76"><polygon
         points="2006.771,1040.847 1998.687,1048.082 1997.798,1058.476 1985.085,1068.879 1962.464,1051.839 1958.88,1054.719     1943.134,1040.847 1934.156,1023.332 1932.696,1005.032 1940.825,999.531 1955.739,988.251 1978.942,999.531 1991.153,1005.032     2003.009,1023.332   "
         id="polygon70" /><polygon
         points="1964.53,1010 1963.689,1010 1962.76,1010 1943.113,961.549 1945.513,960.157 1948.923,961.583   "
         id="polygon72" /><polygon
         points="1962.076,1003.021 1971.986,1008.269 1971.067,1005.745 1960.407,998.435   "
         id="polygon74" /></g><g
       id="g84"><polygon
         fill="#56614C"
         points="1977.413,881.659 1966.697,874.424 1962.024,864.03 1945.525,853.626 1929.106,870.667     1924.473,867.787 1913.777,881.659 1911.174,899.173 1916.374,917.474 1926.505,922.974 1945.525,934.255 1964.622,922.974     1974.831,917.474 1980.027,899.173   "
         id="polygon78" /><polygon
         fill="#534741"
         points="1946.354,913 1945.513,913 1944.583,913 1942.595,961.204 1945.513,962.473 1948.386,961.232       "
         id="polygon80" /><polygon
         fill="#534741"
         points="1946,919.485 1954,914.237 1954,916.761 1946,924.071   "
         id="polygon82" /></g></g><g
     id="g104"><g
       opacity="0.2"
       id="g94"><polygon
         points="739.771,992.847 731.687,1000.082 730.798,1010.476 718.085,1020.879 695.464,1003.839 691.88,1006.719     676.134,992.847 667.156,975.332 665.696,957.032 673.825,951.531 688.739,940.251 711.942,951.531 724.153,957.032     736.009,975.332   "
         id="polygon88" /><polygon
         points="697.53,962 696.689,962 695.76,962 676.113,913.549 678.513,912.157 681.923,913.583   "
         id="polygon90" /><polygon
         points="695.076,955.021 704.986,960.269 704.067,957.745 693.407,950.435   "
         id="polygon92" /></g><g
       id="g102"><polygon
         fill="#56614C"
         points="710.414,833.659 699.697,826.424 695.024,816.03 678.525,805.626 662.106,822.667     657.473,819.787 646.777,833.659 644.174,851.173 649.374,869.474 659.505,874.974 678.525,886.255 697.622,874.974     707.831,869.474 713.027,851.173   "
         id="polygon96" /><polygon
         fill="#534741"
         points="679.354,865 678.513,865 677.583,865 675.595,913.204 678.513,914.473 681.386,913.232   "
         id="polygon98" /><polygon
         fill="#534741"
         points="679,871.485 687,866.237 687,868.761 679,876.071   "
         id="polygon100" /></g></g><g
     id="g122"><g
       opacity="0.2"
       id="g112"><polygon
         points="839.771,1077.847 831.687,1085.082 830.798,1095.476 818.085,1105.879 795.464,1088.839 791.88,1091.719     776.134,1077.847 767.156,1060.333 765.696,1042.032 773.825,1036.531 788.739,1025.251 811.942,1036.531 824.153,1042.032     836.009,1060.333   "
         id="polygon106" /><polygon
         points="797.53,1047 796.689,1047 795.76,1047 776.113,998.549 778.513,997.157 781.923,998.583   "
         id="polygon108" /><polygon
         points="795.076,1040.021 804.986,1045.269 804.067,1042.745 793.407,1035.435   "
         id="polygon110" /></g><g
       id="g120"><polygon
         fill="#56614C"
         points="810.414,918.659 799.697,911.424 795.024,901.03 778.525,890.626 762.106,907.667     757.473,904.787 746.777,918.659 744.174,936.173 749.374,954.474 759.505,959.974 778.525,971.255 797.622,959.974     807.831,954.474 813.027,936.173   "
         id="polygon114" /><polygon
         fill="#534741"
         points="779.354,950 778.513,950 777.583,950 775.595,998.204 778.513,999.473 781.386,998.232   "
         id="polygon116" /><polygon
         fill="#534741"
         points="779,956.485 787,951.237 787,953.761 779,961.071   "
         id="polygon118" /></g></g><g
     id="g144"><g
       opacity="0.2"
       id="g132"><polygon
         points="2056.206,1078.277 2068.354,1084.86 2076.048,1094.318 2094.506,1103.784 2103.803,1088.279 2108.972,1090.899     2114.111,1078.277 2110.679,1062.34 2099.886,1045.688 2088.845,1040.683 2067.803,1030.418 2054.162,1040.683 2046.695,1045.688     2048.028,1062.34   "
         id="polygon124" /><g
         id="g130"><polygon
           points="2074.186,1050 2074.951,1050 2075.797,1050 2061.592,1006.017 2058.493,1004.803 2056.326,1006.022    "
           id="polygon126" /><polygon
           points="2071.512,1043.858 2066.25,1048.633 2065.415,1046.336 2069.994,1039.685    "
           id="polygon128" /></g></g><g
       id="g142"><polygon
         fill="#56614C"
         points="2029.466,933.83 2039.218,927.247 2043.469,917.789 2058.482,908.323 2073.422,923.828     2077.637,921.208 2087.371,933.83 2089.739,949.767 2085.007,966.419 2075.789,971.424 2058.482,981.688 2041.105,971.424     2031.816,966.419 2027.088,949.767   "
         id="polygon134" /><g
         id="g140"><polygon
           fill="#534741"
           points="2057.728,962 2058.493,962 2059.339,962 2061.148,1006.036 2058.493,1007.278 2055.878,1006.018         "
           id="polygon136" /><polygon
           fill="#534741"
           points="2057,968.249 2050,963.474 2050,965.771 2057,972.422    "
           id="polygon138" /></g></g></g><polygon
     fill="#647A55"
     points="1455.552,935.651 1877.031,1035.435 1800.492,879.124 "
     id="polygon154" /><polygon
     fill="#647A55"
     points="751.039,859.844 1050.976,893.941 991.089,804.159 "
     id="polygon156" /><g
     id="g188"><polygon
       fill="#534741"
       points="881.891,801 881.05,801 880.121,801 878.132,858.846 881.05,860.575 883.924,858.769  "
       id="polygon158" /><polygon
       fill="#444D3C"
       points="880.974,801.43 881.119,786.347 882.696,777.93 893.478,765.628 906.541,763.036 891.301,777.447     "
       id="polygon160" /><polygon
       fill="#444D3C"
       points="881.041,801.43 881.115,786.761 879.319,777.93 868.537,765.628 855.474,763.036 870.714,777.447     "
       id="polygon162" /><polygon
       fill="#444D3C"
       points="880.974,801.43 871.448,783.997 851.627,777.4 822.119,782.912 855.474,786.434  "
       id="polygon164" /><polygon
       fill="#444D3C"
       points="881.119,801.43 890.645,783.997 910.466,777.4 939.974,782.912 906.619,786.434  "
       id="polygon166" /><polygon
       fill="#444D3C"
       points="881.05,801 866.813,794.714 845.177,798.072 839.1,805.166 849.391,803.358 868.92,801  "
       id="polygon168" /><polygon
       fill="#444D3C"
       points="881.1,801 895.337,794.714 916.972,798.072 923.05,805.166 912.759,803.358 893.23,801  "
       id="polygon170" /><g
       id="g178"><polygon
         fill="#56614C"
         points="880.974,801.43 865.708,787.364 850.428,785.975 828.55,792.226 848.344,796.567 864.013,796.178       "
         id="polygon172" /><polygon
         fill="#56614C"
         points="880.974,801.43 876.517,782.415 862.897,772.647 845.012,769.758 828.73,773.986 854.852,778.805     870.064,786.594   "
         id="polygon174" /><polygon
         fill="#56614C"
         points="880.974,801.43 865.493,799.352 853.098,802.297 845.516,811.026 843.837,823.146 851.673,813.6     865.351,804.909   "
         id="polygon176" /></g><g
       id="g186"><polygon
         fill="#56614C"
         points="881.05,801.43 896.316,787.364 911.596,785.975 933.474,792.226 913.679,796.567 898.01,796.178       "
         id="polygon180" /><polygon
         fill="#56614C"
         points="881.05,801.43 885.507,782.415 899.127,772.647 917.012,769.758 933.293,773.986 907.172,778.805     891.959,786.594   "
         id="polygon182" /><polygon
         fill="#56614C"
         points="881.05,801.43 896.53,799.352 908.926,802.297 916.508,811.026 918.187,823.146 910.351,813.6     896.673,804.909   "
         id="polygon184" /></g></g><path
     opacity="0.2"
     d="M956.158,921.095l-19.747,5.855l-4.693-0.388l34.115,3.256l-25.618,4.787l21.981,3.573l-14.84,3.96  l-18.87-2.706l-10.37-5.597l0.907,1.102l20.153,13.497l-13.947-2.428l-14.976-11.522l-4.446-7.884l-0.145-0.387l1.214,8.271  l-6.589,11.522l-12.179,2.428l10.328-13.497l0.105-1.092l-6.285,5.588l-16.9,2.706l-17.723-3.96l19.412-3.579l-29.067-4.781  l32.154-3.298h0l-4.889,0.43l-24.009-5.855l18.315-4.066l7.841,0.181l-11.522-1.591l-8.496-6.645l10.908,1.694l3.24,0.352  l-9.73-7.534l-5.81-11.352l11.091,8.941l16.641,8.14l15.868,3.076l-21.447-53.446l2.302-1.768l3.489,1.691l17.471,53.525  l13.639-3.079l10.715-8.14l4.582-8.941l2.453,11.352l-4.254,7.55l3.119-0.368l9.675-1.694l-3.659,6.645l-10.341,1.587l7.561-0.177  L956.158,921.095z M896.966,911h1.814l0.723,0.785l-0.181-0.61L896.966,911z M901.283,911.782l0.348-0.782h1.814l-2.332,0.174  L901.283,911.782z"
     id="path190" /><path
     opacity="0.2"
     d="M1670.135,1059.967l-19.747,5.855l-4.693-0.388l34.115,3.256l-25.618,4.787l21.981,3.573l-14.84,3.96  l-18.87-2.706l-10.37-5.597l0.907,1.102l20.153,13.497l-13.947-2.428l-14.976-11.522l-4.446-7.884l-0.145-0.387l1.214,8.271  l-6.589,11.522l-12.179,2.428l10.328-13.497l0.105-1.093l-6.285,5.588l-16.9,2.706l-17.723-3.96l19.412-3.579l-29.067-4.781  l32.155-3.298l0,0l-4.889,0.43l-24.009-5.855l18.315-4.066l7.842,0.181l-11.522-1.591l-8.496-6.645l10.908,1.694l3.24,0.352  l-9.73-7.534l-5.81-11.352l11.091,8.941l16.641,8.14l15.868,3.076l-21.447-53.446l2.302-1.768l3.489,1.691l17.471,53.525  l13.639-3.078l10.715-8.14l4.582-8.941l2.453,11.352l-4.254,7.55l3.119-0.368l9.675-1.694l-3.659,6.645l-10.341,1.587l7.561-0.177  L1670.135,1059.967z M1610.942,1050h1.814l0.723,0.721l-0.181-0.578L1610.942,1050z M1615.26,1050.718l0.348-0.718h1.814  l-2.332,0.142L1615.26,1050.718z"
     id="path192" /><g
     id="g224"><polygon
       fill="#534741"
       points="1595.891,940 1595.05,940 1594.12,940 1592.132,997.846 1595.05,999.575 1597.923,997.769  "
       id="polygon194" /><polygon
       fill="#444D3C"
       points="1594.974,940.43 1595.119,925.347 1596.696,916.93 1607.478,904.628 1620.541,902.036    1605.301,916.447  "
       id="polygon196" /><polygon
       fill="#444D3C"
       points="1595.041,940.43 1595.115,925.761 1593.319,916.93 1582.537,904.628 1569.474,902.036    1584.714,916.447  "
       id="polygon198" /><polygon
       fill="#444D3C"
       points="1594.974,940.43 1585.448,922.997 1565.627,916.4 1536.119,921.912 1569.474,925.434  "
       id="polygon200" /><polygon
       fill="#444D3C"
       points="1595.119,940.43 1604.645,922.997 1624.466,916.4 1653.974,921.912 1620.619,925.434  "
       id="polygon202" /><polygon
       fill="#444D3C"
       points="1595.05,940 1580.813,933.714 1559.177,937.072 1553.099,944.166 1563.391,942.358 1582.92,940     "
       id="polygon204" /><polygon
       fill="#444D3C"
       points="1595.099,940 1609.337,933.714 1630.973,937.072 1637.05,944.166 1626.759,942.358 1607.23,940     "
       id="polygon206" /><g
       id="g214"><polygon
         fill="#56614C"
         points="1594.974,940.43 1579.708,926.364 1564.428,924.975 1542.55,931.226 1562.344,935.567     1578.013,935.178   "
         id="polygon208" /><polygon
         fill="#56614C"
         points="1594.974,940.43 1590.517,921.415 1576.897,911.647 1559.012,908.758 1542.73,912.986     1568.852,917.805 1584.064,925.594   "
         id="polygon210" /><polygon
         fill="#56614C"
         points="1594.974,940.43 1579.494,938.352 1567.098,941.297 1559.516,950.026 1557.837,962.146     1565.673,952.6 1579.351,943.909   "
         id="polygon212" /></g><g
       id="g222"><polygon
         fill="#56614C"
         points="1595.05,940.43 1610.316,926.364 1625.596,924.975 1647.474,931.226 1627.679,935.567     1612.01,935.178   "
         id="polygon216" /><polygon
         fill="#56614C"
         points="1595.05,940.43 1599.507,921.415 1613.127,911.647 1631.012,908.758 1647.293,912.986     1621.172,917.805 1605.959,925.594   "
         id="polygon218" /><polygon
         fill="#56614C"
         points="1595.05,940.43 1610.53,938.352 1622.926,941.297 1630.508,950.026 1632.187,962.146     1624.351,952.6 1610.673,943.909   "
         id="polygon220" /></g></g><rect
     x="1233.762"
     y="1010.302"
     transform="matrix(0.9555 -0.295 0.295 0.9555 -243.0663 413.9097)"
     fill="#423934"
     width="33.397"
     height="4.698"
     id="rect226" /><rect
     x="1233.762"
     y="1010.302"
     transform="matrix(0.9736 0.2284 -0.2284 0.9736 264.4006 -258.8833)"
     fill="#534741"
     width="33.397"
     height="4.698"
     id="rect228" /><polygon
     fill="#FFF1AD"
     points="1250.377,1010.218 1236.176,1003.031 1233.262,995.488 1237.976,986.66 1240.89,989.317   1244.147,974.917 1245.862,981.26 1250.377,965.489 1256.405,984.346 1258.205,979.546 1261.547,989.917 1264.633,987.089   1267.254,999.174 "
     id="polygon230" /><polygon
     fill="#FFC74D"
     points="1250.461,1008.224 1241.73,1000.146 1244.856,998.726 1245.735,994.265 1248.455,995.126   1250.461,990.102 1252.781,995.913 1254.796,993.939 1255.181,998.157 1257.653,999.163 "
     id="polygon232" /></svg>