<?xml version="1.0" encoding="UTF-8" standalone="no"?>
<svg
   xmlns:dc="http://purl.org/dc/elements/1.1/"
   xmlns:cc="http://creativecommons.org/ns#"
   xmlns:rdf="http://www.w3.org/1999/02/22-rdf-syntax-ns#"
   xmlns:svg="http://www.w3.org/2000/svg"
   xmlns="http://www.w3.org/2000/svg"
   xmlns:sodipodi="http://sodipodi.sourceforge.net/DTD/sodipodi-0.dtd"
   xmlns:inkscape="http://www.inkscape.org/namespaces/inkscape"
   id="svg8"
   version="1.1"
   viewBox="0 0 193.38945 130.06449"
   height="130.0645mm"
   width="193.38945mm"
   sodipodi:docname="pushpin.svg"
   inkscape:version="0.92.2 (5c3e80d, 2017-08-06)">
  <sodipodi:namedview
     pagecolor="#ffffff"
     bordercolor="#666666"
     borderopacity="1"
     objecttolerance="10"
     gridtolerance="10"
     guidetolerance="10"
     inkscape:pageopacity="0"
     inkscape:pageshadow="2"
     inkscape:window-width="2560"
     inkscape:window-height="1376"
     id="namedview895"
     showgrid="false"
     fit-margin-top="0"
     fit-margin-left="0"
     fit-margin-right="0"
     fit-margin-bottom="0"
     inkscape:zoom="0.85234954"
     inkscape:cx="220.46832"
     inkscape:cy="321.35085"
     inkscape:window-x="0"
     inkscape:window-y="27"
     inkscape:window-maximized="1"
     inkscape:current-layer="layer1" />
  <defs
     id="defs2">
    <filter
       height="1.4847801"
       y="-0.24239007"
       width="1.6408623"
       x="-0.32043114"
       id="filter5690"
       style="color-interpolation-filters:sRGB">
      <feGaussianBlur
         id="feGaussianBlur5692"
         stdDeviation="33.378244" />
    </filter>
    <filter
       inkscape:collect="always"
       style="color-interpolation-filters:sRGB"
       id="filter917"
       x="-0.13751106"
       width="1.2750221"
       y="-0.4234114"
       height="1.8468229">
      <feGaussianBlur
         inkscape:collect="always"
         stdDeviation="6.7074064"
         id="feGaussianBlur919" />
    </filter>
  </defs>
  <metadata
     id="metadata5">
    <rdf:RDF>
      <cc:Work
         rdf:about="">
        <dc:format>image/svg+xml</dc:format>
        <dc:type
           rdf:resource="http://purl.org/dc/dcmitype/StillImage" />
        <dc:title></dc:title>
      </cc:Work>
    </rdf:RDF>
  </metadata>
  <g
     transform="translate(-25.106905,-13.249122)"
     id="layer1">
    <path
       id="path5684"
       d="m 79.374999,121.80804 44.799141,-29.663509 42.4109,-2.300773 25.7678,-6.054948 -7.43159,7.38559 11.51906,0.970131 z"
       style="opacity:0.325;fill:#000000;stroke:#000000;stroke-width:0.18235564px;stroke-linecap:butt;stroke-linejoin:miter;stroke-opacity:1;filter:url(#filter917)"
       inkscape:connector-curvature="0" />
    <path
       style="fill:#728961;fill-opacity:1;stroke:none;stroke-width:0.26458332px;stroke-linecap:butt;stroke-linejoin:miter;stroke-opacity:1"
       d="M 112.44791,53.583331 79.374999,121.80804 46.302083,53.583331 79.375485,58.874998 Z"
       id="path4517"
       inkscape:connector-curvature="0" />
    <path
       id="path4519"
       d="M 79.375485,58.874998 79.374999,121.80804 46.302083,53.583331 Z"
       style="fill:#57694b;fill-opacity:1;stroke:none;stroke-width:0.26458332px;stroke-linecap:butt;stroke-linejoin:miter;stroke-opacity:1"
       inkscape:connector-curvature="0" />
    <path
       id="path4521"
       d="m 46.302083,53.583331 33.0734,-5.291667 33.072427,5.291667 -33.072425,5.291667 z"
       style="fill:#96ab88;fill-opacity:1;stroke:none;stroke-width:0.26458332px;stroke-linecap:butt;stroke-linejoin:miter;stroke-opacity:1"
       inkscape:connector-curvature="0" />
    <g
       id="g5640"
       transform="matrix(0.26458333,0,0,0.26458333,-263.06356,-214.73964)">
      <g
         id="g4888"
         transform="translate(3.2499997,61.500001)">
        <polygon
           points="1275,950.201 1323,953.701 1371,950.201 1323,886.99 "
           id="polygon4880"
           style="fill:#ffffff" />
        <polygon
           points="1311.159,955.602 1319.018,953.41 1323,886.99 "
           id="polygon4882"
           style="fill:#ededed" />
        <polygon
           points="1323,953.701 1319.017,953.41 1323,887.201 "
           id="polygon4884"
           style="fill:#4d4d4d" />
        <line
           stroke-miterlimit="10"
           x1="1323"
           y1="887"
           x2="1323"
           y2="880"
           id="line4886"
           style="fill:none;stroke:#4d4d4d;stroke-width:2;stroke-linecap:round;stroke-miterlimit:10" />
      </g>
      <rect
         x="1233.762"
         y="1010.302"
         transform="matrix(0.9555,-0.295,0.295,0.9555,-243.0663,413.9097)"
         width="33.396999"
         height="4.698"
         id="rect5056"
         style="fill:#423934" />
      <rect
         x="1233.762"
         y="1010.302"
         transform="matrix(0.9736,0.2284,-0.2284,0.9736,264.4006,-258.8833)"
         width="33.396999"
         height="4.698"
         id="rect5058"
         style="fill:#534741" />
      <polygon
         points="1264.633,987.089 1267.254,999.174 1250.377,1010.218 1236.176,1003.031 1233.262,995.488 1237.976,986.66 1240.89,989.317 1244.147,974.917 1245.862,981.26 1250.377,965.489 1256.405,984.346 1258.205,979.546 1261.547,989.917 "
         id="polygon5060"
         style="fill:#fff1ad" />
      <polygon
         points="1241.73,1000.146 1244.856,998.726 1245.735,994.265 1248.455,995.126 1250.461,990.102 1252.781,995.913 1254.796,993.939 1255.181,998.157 1257.653,999.163 1250.461,1008.224 "
         id="polygon5062"
         style="fill:#ffc74d" />
    </g>
  </g>
</svg>
